<svg xmlns="http://www.w3.org/2000/svg" width="120" height="120" viewBox="0 0 120 120">
  <g fill="none" fill-rule="evenodd">
    <circle cx="60" cy="60" r="60" fill="#D6EEF8" fill-rule="nonzero"/>
    <path fill="#97D6F0" d="M79.1722069,86.5613608 C77.6633308,87.4751012 75.8937618,88.001 74.002,88.001 C73.8499785,88.001 73.6987504,87.9976113 73.5483871,87.9909052 L73.5483871,90 L73.5483871,90 C73.5483871,91.1045695 72.6529566,92 71.5483871,92 L34,92 C32.8954305,92 32,91.1045695 32,90 L32,38 L32,38 C32,36.8954305 32.8954305,36 34,36 L58.4398827,36 L73.5483871,51.4482759 L73.5483871,68.0100948 C73.6987504,68.0033887 73.8499785,68 74.002,68 C79.521,68 84,72.476 84,78.001 C84,80.9115762 82.7565404,83.5312067 80.7726677,85.3584542 L89.7101068,94.2958932 C90.1006311,94.6864175 90.1006311,95.3195825 89.7101068,95.7101068 C89.3195825,96.1006311 88.6864175,96.1006311 88.2958932,95.7101068 L79.2928932,86.7071068 C79.2473541,86.6615677 79.2071254,86.6127292 79.1722069,86.5613608 Z"/>
    <g stroke-linejoin="round" stroke-width="2" transform="translate(38 30)">
      <polygon fill="#FFFFFF" stroke="#6B788B" stroke-linecap="round" points="41.548 56 0 56 0 0 26.44 0 41.548 15.448"/>
      <polygon fill="#0090DD" stroke="#6B788B" points="26.44 0 26.44 15.448 41.548 15.448"/>
      <polyline stroke="#0090DD" stroke-linecap="round" points="10.108 37.03 18.353 30.026 24.138 33.654 31.519 26.243"/>
      <polyline stroke="#0090DD" stroke-linecap="round" points="10.108 21.929 10.108 42.845 31.851 42.845"/>
    </g>
    <path fill="#FFFFFF" fill-opacity=".6" stroke="#6B788B" stroke-width="2" d="M90,72.001 C90,77.525 85.521,82.001 80.002,82.001 C74.477,82.001 70,77.525 70,72.001 C70,66.476 74.477,62 80.002,62 C85.521,62 90,66.476 90,72.001 Z"/>
    <path stroke="#6B788B" stroke-linecap="round" stroke-width="2" d="M86,80 L95.003,89.003"/>
  </g>
</svg>
