<svg xmlns="http://www.w3.org/2000/svg" width="120" height="120" viewBox="0 0 120 120">
  <g fill="none" fill-rule="evenodd">
    <circle cx="60" cy="60" r="60" fill="#D6EEF8" fill-rule="nonzero"/>
    <g transform="translate(22 37)">
      <path fill="#23AAE2" d="M62.72,6 C63.42656,6 64,6.57344 64,7.28 L64,50.8 C64,51.50656 63.42656,52.08 62.72,52.08 L49.92,52.08 C49.21344,52.08 48.64,51.50656 48.64,50.8 L48.64,48.24 C48.64,46.48768 47.97312,44.4 44.8,44.4 C41.62688,44.4 40.96,46.48768 40.96,48.24 L40.96,50.8 C40.96,51.50656 40.38656,52.08 39.68,52.08 L24.32,52.08 C23.61344,52.08 23.04,51.50656 23.04,50.8 L23.04,48.24 C23.04,46.48768 22.37312,44.4 19.2,44.4 C16.02688,44.4 15.36,46.48768 15.36,48.24 L15.36,50.8 C15.36,51.50656 14.78656,52.08 14.08,52.08 L1.28,52.08 C0.57344,52.08 7.10542736e-15,51.50656 7.10542736e-15,50.8 L7.10542736e-15,7.28 C7.10542736e-15,6.57344 0.57344,6 1.28,6 L62.72,6 Z" opacity=".35"/>
      <polygon fill="#FFFFFF" points="7.378 44.387 7.55 1.317 69.027 1.605 68.917 44.992 56.63 44.708 55.714 42.612 55.087 38.896 53.307 37.378 49.726 37.255 46.994 38.354 46.028 40.401 45.477 44.655 30.777 44.66 29.604 39.092 27.065 37.465 24.127 37.393 21.577 37.763 20.483 39.168 19.569 42.945 19.297 44.917"/>
      <path fill="#6B788B" d="M67.44,43.52 L57.2,43.52 L57.2,42.24 C57.2,39.14624 55.51808,35.84 50.8,35.84 C46.08192,35.84 44.4,39.14624 44.4,42.24 L44.4,43.52 L31.6,43.52 L31.6,42.24 C31.6,39.14624 29.91808,35.84 25.2,35.84 C20.48192,35.84 18.8,39.14624 18.8,42.24 L18.8,43.52 L8.56,43.52 L8.56,2.56 L67.44,2.56 L67.44,43.52 Z M68.72,0 L7.28,0 C6.57344,0 6,0.57344 6,1.28 L6,44.8 C6,45.50656 6.57344,46.08 7.28,46.08 L20.08,46.08 C20.78656,46.08 21.36,45.50656 21.36,44.8 L21.36,42.24 C21.36,40.48768 22.02688,38.4 25.2,38.4 C28.37312,38.4 29.04,40.48768 29.04,42.24 L29.04,44.8 C29.04,45.50656 29.61344,46.08 30.32,46.08 L45.68,46.08 C46.38656,46.08 46.96,45.50656 46.96,44.8 L46.96,42.24 C46.96,40.48768 47.62688,38.4 50.8,38.4 C53.97312,38.4 54.64,40.48768 54.64,42.24 L54.64,44.8 C54.64,45.50656 55.21344,46.08 55.92,46.08 L68.72,46.08 C69.42656,46.08 70,45.50656 70,44.8 L70,1.28 C70,0.57344 69.42656,0 68.72,0 L68.72,0 Z"/>
      <path fill="#0090DD" d="M18.876288,28.16 C19.187328,25.57824 20.636288,21.76 26.479488,21.76 C32.323968,21.76 33.772928,25.57824 34.083968,28.16 L18.876288,28.16 Z M22.918528,15.63776 C22.918528,13.67424 24.515968,12.0768 26.479488,12.0768 C28.444288,12.0768 30.041728,13.67424 30.041728,15.63776 C30.041728,17.60128 28.444288,19.2 26.479488,19.2 C24.515968,19.2 22.918528,17.60128 22.918528,15.63776 L22.918528,15.63776 Z M36.719488,29.44 C36.719488,25.59616 35.086208,21.55904 30.826368,19.94112 C31.922048,18.8352 32.601728,17.31456 32.601728,15.63776 C32.601728,12.26368 29.856128,9.5168 26.479488,9.5168 C23.104128,9.5168 20.358528,12.26368 20.358528,15.63776 C20.358528,17.31456 21.038208,18.8352 22.133888,19.94112 C17.874048,21.55904 16.239488,25.59616 16.239488,29.44 L16.239488,30.72 L36.719488,30.72 L36.719488,29.44 Z"/>
      <polygon fill="#6B788B" points="44.511 28.16 59.76 28.16 59.76 25.6 44.511 25.6"/>
      <polygon fill="#6B788B" points="59.76 17.92 44.4 17.92 44.4 20.48 59.76 20.48"/>
      <polygon fill="#6B788B" points="52.08 10.24 44.511 10.24 44.511 12.8 52.08 12.8"/>
    </g>
  </g>
</svg>
